<svg width="20" height="20" viewBox="0 0 20 20" fill="none" xmlns="http://www.w3.org/2000/svg">
    <path d="M14.6203 4.474H14.4136C14.3872 2.003 12.4242 0 10.0117 0C8.79665 0.017 7.723 0.46 6.88729 1.311C6.06231 2.149 5.60398 3.265 5.58643 4.474H5.3797C2.68923 4.474 0.5 6.719 0.5 9.479V14.995C0.5 17.755 2.68923 20 5.3797 20C5.78341 20 6.11107 19.664 6.11107 19.25C6.11107 18.836 5.78341 18.5 5.3797 18.5C3.49569 18.5 1.96274 16.928 1.96274 14.995V9.479C1.96274 7.546 3.49569 5.974 5.3797 5.974H5.58155V7.555C5.58155 7.969 5.90921 8.305 6.31292 8.305C6.71664 8.305 7.04429 7.969 7.04429 7.555V4.509C7.04722 3.702 7.35732 2.944 7.91608 2.375C8.4768 1.808 9.22475 1.545 10.0088 1.5C11.6168 1.5 12.9245 2.83 12.9508 4.474H9.75133C9.34762 4.474 9.01997 4.81 9.01997 5.224C9.01997 5.638 9.34762 5.974 9.75133 5.974H12.9557V7.555C12.9557 7.969 13.2834 8.305 13.6871 8.305C14.0908 8.305 14.4184 7.969 14.4184 7.555V5.974H14.6203C16.5043 5.974 18.0373 7.546 18.0373 9.479V14.995C18.0373 16.928 16.5043 18.5 14.6203 18.5H9.36322C8.95951 18.5 8.63185 18.836 8.63185 19.25C8.63185 19.664 8.95951 20 9.36322 20H14.6203C17.3108 20 19.5 17.755 19.5 14.995V9.479C19.5 6.719 17.3108 4.474 14.6203 4.474Z" fill="#212121"/>
</svg>
