<svg width="20" height="20" viewBox="0 0 20 20" fill="none" xmlns="http://www.w3.org/2000/svg">
<path d="M1.70279 4.78767L9.99994 8.93625M9.99994 8.93625L18.2971 4.78767M9.99994 8.93625L9.99994 19.0162M5.71422 2.50767L14.2857 6.79339M10.7628 0.750532L17.6199 4.1791C17.9055 4.32103 18.1459 4.53981 18.314 4.81086C18.4821 5.0819 18.5712 5.39446 18.5714 5.71339V13.882C18.5712 14.2009 18.4821 14.5135 18.314 14.7845C18.1459 15.0555 17.9055 15.2743 17.6199 15.4162L10.7628 18.8448C10.5246 18.964 10.262 19.026 9.99565 19.026C9.72933 19.026 9.46667 18.964 9.22851 18.8448L2.37137 15.4162C2.08605 15.2725 1.84658 15.0518 1.67998 14.7792C1.51339 14.5066 1.42628 14.1929 1.42851 13.8734V5.71339C1.42868 5.39446 1.51781 5.0819 1.68589 4.81086C1.85397 4.53981 2.09433 4.32103 2.37994 4.1791L9.23708 0.750532C9.47413 0.63274 9.73523 0.571442 9.99994 0.571442C10.2646 0.571442 10.5257 0.63274 10.7628 0.750532Z" stroke="#FF8108" stroke-linecap="round" stroke-linejoin="round"/>
</svg>
