<svg width="171" height="149" viewBox="0 0 171 149" fill="none" xmlns="http://www.w3.org/2000/svg">
    <path d="M131.886 88.7009V88.6754C128.426 87.5265 123.118 87.9166 122.33 88.3872C121.491 88.9484 120.771 89.6686 120.21 90.507C118.346 93.1507 117.011 96.129 116.275 99.2788L78.6486 102.777C77.2622 99.7833 75.1721 97.0996 73.0735 95.4801C72.4738 94.978 71.7828 94.5965 71.0384 94.3566C70.7108 94.3174 70.379 94.3288 70.0548 94.3905C68.6897 90.4349 66.7564 86.6192 64.3398 86.3776C59.2522 85.8688 50.3744 87.5731 47.9536 92.5081C45.5327 97.443 44.7738 109.763 44.7738 109.763L43.078 111.459C41.8411 109.05 40.1207 106.921 38.0243 105.206C37.4266 104.701 36.735 104.319 35.9893 104.082C35.5653 103.964 33.8695 104.226 32.093 104.807C32.021 104.739 31.9531 104.672 31.8768 104.608C30.181 103.188 26.7044 102.412 24.7627 106.033C22.8209 109.653 25.1527 116.509 26.3144 118.06C26.8786 118.853 27.586 119.533 28.4003 120.066C29.7697 123.458 32.216 127.782 35.9808 127.981C37.2703 128.051 38.5597 127.842 39.7615 127.369C40.9634 126.897 42.0496 126.171 42.9465 125.242C45.3886 122.699 45.6514 119.125 44.7314 115.627L45.1257 115.05C45.1257 115.05 46.0033 116.301 49.3654 115.796C50.34 115.696 51.264 115.313 52.0236 114.694C53.6008 118.718 56.1488 122.749 60.1977 123.352C61.9353 123.617 63.7099 123.506 65.4006 123.024C67.0913 122.543 68.6585 121.703 69.9955 120.562C70.7726 119.891 71.4506 119.113 72.0093 118.251C74.2763 118.126 76.412 117.148 77.9872 115.512C79.3966 114.009 80.2026 112.04 80.2512 109.98L85.2582 109.395C88.4014 110.797 91.8306 111.439 95.268 111.269C98.5596 111.057 101.675 109.708 104.082 107.453L115.491 106.478C115.682 110.9 117.272 114.957 121.003 117.191C122.431 118.044 124.027 118.577 125.681 118.753C127.336 118.929 129.008 118.745 130.584 118.213C135.846 116.449 137.092 108.631 137.431 103.879C137.957 96.2474 135.523 89.782 131.886 88.7009Z" fill="#263238" stroke="#263238" stroke-width="0.75" stroke-linecap="round" stroke-linejoin="round"/>
    <path d="M62.2283 120.897C61.7908 121.456 61.2329 121.91 60.5961 122.224" stroke="white" stroke-width="0.5" stroke-linecap="round" stroke-linejoin="round"/>
    <path d="M64.2843 110.849C64.2843 110.849 64.7889 116.36 62.9107 119.858" stroke="white" stroke-width="0.5" stroke-linecap="round" stroke-linejoin="round"/>
    <path d="M65.7724 116.937C65.2933 119.057 64.3394 121.113 62.4909 122.025" stroke="white" stroke-width="0.5" stroke-linecap="round" stroke-linejoin="round"/>
    <path d="M68.0748 110.429C68.0748 110.429 68.9227 119.591 64.3906 121.804" stroke="white" stroke-width="0.5" stroke-linecap="round" stroke-linejoin="round"/>
    <path d="M69.9744 110.217C69.9744 110.217 70.8224 119.383 66.2859 121.592" stroke="white" stroke-width="0.5" stroke-linecap="round" stroke-linejoin="round"/>
    <path d="M127.171 116.64C126.684 117.255 126.078 117.767 125.39 118.145" stroke="white" stroke-width="0.5" stroke-linecap="round" stroke-linejoin="round"/>
    <path d="M130.58 105.197C130.58 105.197 130.308 111.468 127.981 115.457" stroke="white" stroke-width="0.5" stroke-linecap="round" stroke-linejoin="round"/>
    <path d="M131.186 112.142C130.423 114.554 129.202 116.895 127.273 117.912" stroke="white" stroke-width="0.5" stroke-linecap="round" stroke-linejoin="round"/>
    <path d="M134.345 104.731C134.345 104.731 133.891 115.177 129.155 117.679" stroke="white" stroke-width="0.5" stroke-linecap="round" stroke-linejoin="round"/>
    <path d="M136.235 104.502C136.235 104.502 135.782 114.944 131.046 117.45" stroke="white" stroke-width="0.5" stroke-linecap="round" stroke-linejoin="round"/>
    <path d="M37.1762 126.565C36.8154 127.118 36.3396 127.587 35.7813 127.939" stroke="white" stroke-width="0.5" stroke-linecap="round" stroke-linejoin="round"/>
    <path d="M37.8462 117.649C37.8462 117.649 39.0418 122.313 37.6936 125.573" stroke="white" stroke-width="0.5" stroke-linecap="round" stroke-linejoin="round"/>
    <path d="M40.0636 122.656C39.8728 124.543 39.2156 126.442 37.5749 127.485" stroke="white" stroke-width="0.5" stroke-linecap="round" stroke-linejoin="round"/>
    <path d="M41.4242 116.742C41.4242 116.742 43.4169 124.479 39.3638 127.027" stroke="white" stroke-width="0.5" stroke-linecap="round" stroke-linejoin="round"/>
    <path d="M43.2137 116.284C43.2137 116.284 45.2105 124.021 41.1532 126.574" stroke="white" stroke-width="0.5" stroke-linecap="round" stroke-linejoin="round"/>
    <path d="M57.8273 107.707C58.8363 113.477 58.2046 118.412 56.424 118.73C54.6433 119.048 52.3751 114.614 51.3661 108.843C50.3571 103.073 50.9888 98.1383 52.7737 97.8204C54.5585 97.5024 56.8183 101.933 57.8273 107.707Z" fill="#F9B9B9" stroke="#263238" stroke-linecap="round" stroke-linejoin="round"/>
    <path d="M56.9289 107.83C57.2087 110.043 56.9501 111.896 56.3438 111.972C55.7375 112.049 55.0253 110.319 54.7455 108.106C54.4656 105.893 54.7455 104.036 55.3305 103.959C55.9156 103.883 56.6491 105.617 56.9289 107.83Z" fill="#F9B9B9" stroke="#263238" stroke-linecap="round" stroke-linejoin="round"/>
    <path d="M52.6764 102.539C52.7365 101.796 52.8542 101.059 53.0283 100.334" stroke="#263238" stroke-width="0.75" stroke-linecap="round" stroke-linejoin="round"/>
    <path d="M55.4872 116.649C54.314 114.3 53.4749 111.798 52.9943 109.217C52.675 107.391 52.5457 105.536 52.6085 103.684" stroke="#263238" stroke-width="0.75" stroke-linecap="round" stroke-linejoin="round"/>
    <path d="M32.8765 124.856C34.1582 124.501 34.2649 120.849 33.1149 116.699C31.9649 112.55 29.9937 109.474 28.712 109.829C27.4303 110.184 27.3236 113.836 28.4736 117.985C29.6236 122.135 31.5949 125.211 32.8765 124.856Z" fill="#F9B9B9" stroke="#263238" stroke-linecap="round" stroke-linejoin="round"/>
    <path d="M32.6946 116.865C33.0974 118.442 33.0762 119.807 32.6438 119.917C32.2113 120.028 31.5415 118.836 31.1387 117.263C30.7359 115.69 30.7571 114.317 31.1896 114.211C31.622 114.105 32.2919 115.288 32.6946 116.865Z" stroke="#263238" stroke-width="0.75" stroke-linecap="round" stroke-linejoin="round"/>
    <path d="M29.1421 113.418C29.1185 112.875 29.1369 112.33 29.1972 111.79" stroke="#263238" stroke-width="0.75" stroke-linecap="round" stroke-linejoin="round"/>
    <path d="M32.4446 123.377C31.3844 121.782 30.5524 120.047 29.9728 118.222C29.5767 116.929 29.3152 115.599 29.1927 114.253" stroke="#263238" stroke-width="0.75" stroke-linecap="round" stroke-linejoin="round"/>
    <path d="M123.758 45.8805C119.29 36.6593 117.361 35.858 114.389 35.7053C111.417 35.5527 104.4 34.6793 96.5824 35.93C96.5824 35.93 74.7736 35.5485 57.8998 45.7703C40.2841 56.4414 31.7115 65.8153 30.5117 70.6739C29.3119 75.5326 25.2164 88.1922 23.2746 95.4504C21.3329 102.709 20.0101 109.102 22.486 114.978C23.9826 118.531 25.5767 119.599 27.6245 119.583C27.3112 119.02 27.035 118.438 26.7978 117.84C24.7627 112.799 25.0086 105.587 27.332 105.121C29.6553 104.655 31.0417 109.484 32.445 114.749C32.7235 115.91 33.1008 117.045 33.5727 118.141C37.045 116.831 42.6074 113.901 50.0014 110.857C49.2994 106.233 49.2837 101.53 49.9547 96.9004C51.0485 89.6633 55.674 88.065 57.6878 92.47C59.354 96.0991 59.973 104.222 60.1383 106.961C63.1061 105.939 65.5905 105.265 67.121 105.172C67.121 105.172 92.4233 99.4569 111.073 98.999C129.724 98.5411 139.055 98.096 139.055 98.096C139.055 98.096 128.227 55.0848 123.758 45.8805Z" fill="white"/>
    <path d="M64.1325 90.3713C64.1325 90.3713 61.5675 93.8817 58.4471 94.6321C59.5495 98.6768 60.0031 104.663 60.143 106.927C62.7928 106.016 65.044 105.375 66.5873 105.189C66.812 103.866 66.9476 103.022 66.9476 103.022L64.1325 90.3713Z" fill="#F9B9B9"/>
    <path opacity="0.2" d="M32.5552 115.131C33.7338 115.25 34.5182 115.758 36.9136 115.161C41.1532 114.105 38.1049 105.922 45.1385 102.581C46.5039 101.893 47.9897 101.475 49.5138 101.352C49.577 99.8547 49.7186 98.3617 49.9378 96.8792C50.1245 95.423 50.5544 94.0084 51.2097 92.6946C49.2891 92.1053 48.9414 91.5414 45.6684 93.0974C38.6306 96.4382 39.6863 105.057 35.4679 106.113C32.1016 106.961 31.915 105.609 29.3585 106.236C30.5541 107.932 31.4783 111.235 32.4111 114.715C32.4831 114.872 32.5171 114.987 32.5552 115.131Z" fill="#F9B9B9"/>
    <g style="mix-blend-mode:multiply">
        <path opacity="0.2" d="M25.6322 107.885C23.6608 109.242 22.4864 111.277 21.8165 112.994C21.9982 113.672 22.222 114.337 22.4864 114.987C23.983 118.54 25.5771 119.608 27.6248 119.591C27.3115 119.029 27.0354 118.447 26.7981 117.848C25.505 114.639 25.1574 110.556 25.6322 107.885Z" fill="#F9B9B9"/>
    </g>
    <g style="mix-blend-mode:multiply" opacity="0.2">
        <path d="M114.389 35.7053L113.622 35.6587C82.7018 43.5698 70.1227 80.8363 65.7941 98.7955C66.0272 100.58 66.2816 102.331 66.5572 104.036C67.0829 103.934 66.7183 105.172 67.1211 105.151C67.1211 105.151 92.4233 99.4357 111.073 98.9778C129.724 98.5199 139.055 98.0747 139.055 98.0747C139.055 98.0747 128.227 55.0847 123.759 45.8804C119.29 36.6762 117.361 35.841 114.389 35.7053Z" fill="#F9B9B9"/>
    </g>
    <path d="M123.758 45.8805C119.29 36.6593 117.361 35.858 114.389 35.7053C111.417 35.5527 104.4 34.6793 96.5824 35.93C96.5824 35.93 74.7736 35.5485 57.8998 45.7703C40.2841 56.4414 31.7115 65.8153 30.5117 70.6739C29.3119 75.5326 25.2164 88.1922 23.2746 95.4504C21.3329 102.709 20.0101 109.102 22.486 114.978C23.9826 118.531 25.5767 119.599 27.6245 119.583C27.3112 119.02 27.035 118.438 26.7978 117.84C24.7627 112.799 25.0086 105.587 27.332 105.121C29.6553 104.655 31.0417 109.484 32.445 114.749C32.7235 115.91 33.1008 117.045 33.5727 118.141C37.045 116.831 42.6074 113.901 50.0014 110.857C49.2994 106.233 49.2837 101.53 49.9547 96.9004C51.0485 89.6633 55.674 88.065 57.6878 92.47C59.354 96.0991 59.973 104.222 60.1383 106.961C63.1061 105.939 65.5905 105.265 67.121 105.172C67.121 105.172 92.4233 99.4569 111.073 98.999C129.724 98.5411 139.055 98.096 139.055 98.096C139.055 98.096 128.227 55.0848 123.758 45.8805Z" stroke="#263238" stroke-linecap="round" stroke-linejoin="round"/>
    <path opacity="0.2" d="M31.2068 92.4148C31.4979 92.657 31.8521 92.8108 32.2277 92.8581C32.6034 92.9054 32.9847 92.8443 33.3267 92.6819C34.6622 92.1477 34.7978 90.1382 34.7978 90.1382L36.7989 90.0067L37.2017 83.7278L32.7925 85.4618C32.7925 85.4618 31.6096 91.6135 31.2068 92.4148Z" fill="#F9B9B9"/>
    <path d="M25.4236 110.777C24.1576 111.45 22.9605 112.245 21.8495 113.151C22.0253 113.772 22.2377 114.382 22.4855 114.978C23.9821 118.531 25.5762 119.599 27.6239 119.582C27.3107 119.02 27.0345 118.438 26.7972 117.84C25.9281 115.585 25.4631 113.194 25.4236 110.777V110.777Z" fill="#263238" stroke="#263238" stroke-width="0.75" stroke-linecap="round" stroke-linejoin="round"/>
    <path d="M32.1773 107.275C32.0626 107.274 31.9501 107.243 31.8517 107.184C31.7532 107.125 31.6724 107.041 31.6177 106.94C31.5405 106.793 31.5239 106.622 31.5715 106.464C31.6191 106.305 31.727 106.172 31.8721 106.092C31.9738 106.037 40.2242 100.924 47.0585 97.2904C47.1323 97.2512 47.213 97.2268 47.2962 97.2188C47.3794 97.2107 47.4633 97.2192 47.5432 97.2436C47.6232 97.268 47.6975 97.3079 47.762 97.361C47.8265 97.4142 47.8799 97.4795 47.9191 97.5533C47.9584 97.627 47.9827 97.7078 47.9908 97.791C47.9988 97.8742 47.9904 97.9581 47.9659 98.038C47.9415 98.1179 47.9016 98.1923 47.8485 98.2568C47.7954 98.3213 47.73 98.3747 47.6563 98.4139C40.8262 102.043 32.5801 107.152 32.4783 107.207C32.3855 107.255 32.2818 107.279 32.1773 107.275V107.275Z" fill="#263238" stroke="#263238" stroke-miterlimit="10"/>
    <path d="M42.963 64.7766L42.6705 72.056C42.6069 73.0481 43.1835 73.5272 43.9424 73.099L55.665 65.4676C56.096 65.1671 56.4435 64.762 56.6749 64.2903C56.9062 63.8187 57.0139 63.2959 56.9878 62.7712L56.9157 54.6523C56.8309 53.9146 56.3306 53.6136 55.7159 53.9315C53.5113 55.072 49.2547 58.9301 44.1671 62.5211C43.8224 62.7943 43.5376 63.1355 43.3304 63.5235C43.1233 63.9116 42.9982 64.3381 42.963 64.7766V64.7766Z" fill="#F9B9B9" stroke="#263238" stroke-linecap="round" stroke-linejoin="round"/>
    <path d="M50.8828 62.7246L56.6106 64.1237" stroke="#263238" stroke-linecap="round" stroke-linejoin="round"/>
    <path d="M43.048 73.1329L46.5839 65.3235" stroke="#263238" stroke-linecap="round" stroke-linejoin="round"/>
    <path d="M43.0312 64.5349L48.229 65.1836C48.7674 65.2641 49.4373 64.819 49.9249 64.0473L56.7083 54.3343" stroke="#263238" stroke-linecap="round" stroke-linejoin="round"/>
    <path d="M72.0515 51.2521L73.2555 69.4826C73.2867 70.0088 73.4248 70.5232 73.6614 70.9943C73.898 71.4653 74.2282 71.8833 74.6317 72.2225C75.0352 72.5617 75.5036 72.8152 76.0083 72.9673C76.513 73.1195 77.0435 73.1672 77.5672 73.1075L118.064 67.8503C118.622 67.786 119.16 67.6013 119.639 67.309C120.119 67.0167 120.529 66.6238 120.842 66.1574C121.155 65.6909 121.363 65.1621 121.451 64.6075C121.54 64.0529 121.507 63.4856 121.354 62.945L116.241 44.8672C115.999 44.0081 115.468 43.259 114.737 42.7468C114.006 42.2345 113.121 41.9906 112.231 42.0563C105.668 42.5396 89.9258 43.9514 75.0659 47.2626C74.1736 47.4653 73.3817 47.9768 72.8301 48.7069C72.2785 49.4369 72.0027 50.3384 72.0515 51.2521V51.2521Z" fill="#F9B9B9" stroke="#263238" stroke-linecap="round" stroke-linejoin="round"/>
    <path d="M102.153 56.9035L120.642 65.6626" stroke="#263238" stroke-linecap="round" stroke-linejoin="round"/>
    <path d="M74.7905 72.3062L90.4051 58.3323" stroke="#263238" stroke-linecap="round" stroke-linejoin="round"/>
    <path d="M72.1873 50.773L94.5939 59.9857C95.4352 60.3294 96.3582 60.4213 97.2507 60.2505C98.1433 60.0797 98.9671 59.6533 99.6221 59.0233L115.593 43.9429" stroke="#263238" stroke-linecap="round" stroke-linejoin="round"/>
    <path d="M116.935 70.4307C120.741 70.337 123.752 67.2287 123.66 63.4881C123.568 59.7476 120.408 56.7912 116.602 56.8849C112.796 56.9786 109.785 60.0868 109.877 63.8274C109.969 67.568 113.129 70.5244 116.935 70.4307Z" fill="#263238" stroke="#263238" stroke-width="0.75" stroke-linecap="round" stroke-linejoin="round"/>
    <path d="M116.025 66.8921H116.004C115.87 66.8925 115.738 66.8612 115.619 66.8007C115.499 66.7403 115.396 66.6525 115.317 66.5445L112.608 62.8051C112.476 62.623 112.422 62.3958 112.457 62.1736C112.492 61.9513 112.614 61.7523 112.797 61.6201C112.979 61.488 113.206 61.4337 113.428 61.4691C113.65 61.5044 113.85 61.6267 113.982 61.8088L116.004 64.5985L120.837 57.921C120.969 57.7389 121.168 57.6167 121.391 57.5813C121.613 57.5459 121.84 57.6003 122.022 57.7324C122.204 57.8645 122.327 58.0636 122.362 58.2858C122.397 58.508 122.343 58.7352 122.211 58.9174L116.699 66.5487C116.621 66.6542 116.52 66.7402 116.403 66.7998C116.286 66.8594 116.156 66.891 116.025 66.8921Z" fill="white" stroke="#263238" stroke-linecap="round" stroke-linejoin="round"/>
    <path d="M90.4177 85.165C90.4177 85.165 104.833 82.4008 114.711 82.5958L115.304 84.97C115.304 84.97 94.5641 85.9536 90.6128 87.9377L90.4177 85.165Z" fill="#263238" stroke="#263238" stroke-width="0.75" stroke-linecap="round" stroke-linejoin="round"/>
    <path d="M90.6129 87.9293L91.0368 90.3035C91.0807 90.568 91.2263 90.8049 91.4427 90.9634C91.659 91.1219 91.9288 91.1894 92.1942 91.1514C95.8107 90.6342 108.504 88.8917 115.088 89.0528C115.251 89.0577 115.412 89.0243 115.558 88.9553C115.705 88.8862 115.834 88.7834 115.933 88.6553C116.033 88.5272 116.101 88.3774 116.132 88.2181C116.162 88.0588 116.155 87.8944 116.11 87.7385L115.322 84.9785" stroke="#263238" stroke-linecap="round" stroke-linejoin="round"/>
    <path d="M38.0116 83.7363L37.9311 73.9427L38.4186 63.8735C38.4223 63.7772 38.3968 63.682 38.3455 63.6004C38.2942 63.5188 38.2195 63.4546 38.1311 63.4161C38.0427 63.3777 37.9448 63.3667 37.8501 63.3848C37.7554 63.4029 37.6684 63.4491 37.6004 63.5174C35.7773 65.3828 32.657 68.2064 31.7327 70.5213C30.5329 73.5187 29.1126 88.2727 29.1126 88.2727L38.0116 83.7363Z" fill="#263238" stroke="#263238" stroke-width="0.75" stroke-linecap="round" stroke-linejoin="round"/>
    <path d="M26.7211 81.7691H25.3008C24.5773 81.7691 23.9907 82.3556 23.9907 83.0791V90.3968C23.9907 91.1203 24.5773 91.7068 25.3008 91.7068H26.7211C27.4446 91.7068 28.0311 91.1203 28.0311 90.3968V83.0791C28.0311 82.3556 27.4446 81.7691 26.7211 81.7691Z" fill="#263238" stroke="#263238" stroke-width="0.75" stroke-linecap="round" stroke-linejoin="round"/>
    <path d="M27.6154 74.9348C28.2877 75.0637 28.9443 75.2641 29.5741 75.5326C30.0963 75.7895 30.5708 76.1336 30.9774 76.5501L33.0972 73.7477C33.0972 73.7477 29.9896 72.4461 29.4002 71.6533L28.8152 70.8562L27.6154 74.9348Z" fill="white"/>
    <g style="mix-blend-mode:multiply" opacity="0.5">
        <path d="M29.396 71.6533L28.8491 70.8944L28.7855 70.9368L27.6154 74.922C27.6154 74.922 27.8401 74.9644 28.158 75.0407L31.1894 72.8446C30.5269 72.5548 29.92 72.1516 29.396 71.6533V71.6533Z" fill="#F9B9B9"/>
    </g>
    <path d="M27.6154 74.9348C28.2877 75.0637 28.9443 75.2641 29.5741 75.5326C30.0963 75.7895 30.5708 76.1336 30.9774 76.5501L33.0972 73.7477C33.0972 73.7477 29.9896 72.4461 29.4002 71.6533L28.8152 70.8562L27.6154 74.9348Z" stroke="#263238" stroke-width="0.75" stroke-linecap="round" stroke-linejoin="round"/>
    <path d="M32.0933 72.5563L29.5029 75.859L29.8548 76.9825L33.8019 72.8828L32.0933 72.5563Z" fill="#F9B9B9" stroke="#263238" stroke-linecap="round" stroke-linejoin="round"/>
    <path d="M27.9464 63.2248C26.1954 61.8682 21.6335 62.733 20.739 65.9467C20.1878 67.9266 20.4931 70.8944 20.4931 70.8944L25.6909 69.7921L26.1148 70.4322C26.9628 71.7041 28.7985 70.8562 29.2734 70.4322C29.532 70.2075 29.515 69.5462 29.4472 68.9992L29.6549 68.9526C29.6549 68.9526 29.6931 64.5858 27.9464 63.2248Z" fill="#263238" stroke="#263238" stroke-width="0.75" stroke-linecap="round" stroke-linejoin="round"/>
    <path d="M26.0049 69.402C23.7235 69.1479 21.4142 69.3672 19.2215 70.0464C15.8298 71.1827 15.3083 72.1663 17.7376 72.1069C20.1669 72.0476 26.0049 69.402 26.0049 69.402Z" fill="#263238" stroke="#263238" stroke-width="0.75" stroke-linecap="round" stroke-linejoin="round"/>
    <path d="M21.8161 68.1683C22.2118 68.1683 22.5326 67.7298 22.5326 67.1889C22.5326 66.648 22.2118 66.2096 21.8161 66.2096C21.4204 66.2096 21.0996 66.648 21.0996 67.1889C21.0996 67.7298 21.4204 68.1683 21.8161 68.1683Z" fill="#F9B9B9"/>
    <path d="M37.9312 73.9427C37.9312 73.9427 33.2888 72.7641 31.86 73.8494C30.4312 74.9348 30.0666 76.7281 30.5245 78.9031C30.9824 81.078 32.0974 86.7973 32.0974 86.7973L38.0117 83.7363L37.9312 73.9427Z" fill="#263238" stroke="#263238" stroke-width="0.75" stroke-linecap="round" stroke-linejoin="round"/>
    <path d="M30.5623 85.8858C30.5623 85.8858 30.3122 88.0819 30.0196 88.3914C29.7271 88.7009 22.0109 82.2185 21.5403 81.608C21.0697 80.9975 21.392 78.8183 21.5403 78.1357C21.6887 77.4531 21.4386 77.08 20.6924 77.5506C19.9462 78.0212 20.1455 79.9799 20.1455 79.9799C20.1455 79.9799 17.8688 79.433 17.4152 79.3694C16.9615 79.3058 16.5672 79.8697 16.6351 80.3191C16.7029 80.7685 17.3007 80.8067 17.3007 80.8067C17.1478 81.4574 17.1905 82.1389 17.4237 82.7654C17.8222 83.5879 18.2716 84.1051 19.1195 84.3086C19.9944 84.4451 20.8801 84.499 21.765 84.4697C21.765 84.4697 25.7079 88.2261 26.8526 89.6294C27.9973 91.0327 30.4097 92.9405 31.6095 92.5971C32.8093 92.2537 33.954 86.2631 33.954 86.2631L30.5623 85.8858Z" fill="white"/>
    <g style="mix-blend-mode:multiply" opacity="0.5">
        <path d="M30.0194 88.3914L32.2749 89.1418C32.3464 89.6149 32.2464 90.098 31.9929 90.5039C31.7395 90.9097 31.3493 91.2116 30.8927 91.3549C29.8964 91.6856 28.1073 90.5536 26.8354 89.5997L26.8735 89.6463C28.0394 91.0539 30.4306 92.9575 31.6304 92.6141C32.8302 92.2707 33.975 86.2801 33.975 86.2801L30.562 85.8561C30.562 85.8561 30.3119 88.0819 30.0194 88.3914Z" fill="#F9B9B9"/>
    </g>
    <path d="M30.5623 85.8858C30.5623 85.8858 30.3122 88.0819 30.0196 88.3914C29.7271 88.7009 22.0109 82.2185 21.5403 81.608C21.0697 80.9975 21.392 78.8183 21.5403 78.1357C21.6887 77.4531 21.4386 77.08 20.6924 77.5506C19.9462 78.0212 20.1455 79.9799 20.1455 79.9799C20.1455 79.9799 17.8688 79.433 17.4152 79.3694C16.9615 79.3058 16.5672 79.8697 16.6351 80.3191C16.7029 80.7685 17.3007 80.8067 17.3007 80.8067C17.1478 81.4574 17.1905 82.1389 17.4237 82.7654C17.8222 83.5879 18.2716 84.1051 19.1195 84.3086C19.9944 84.4451 20.8801 84.499 21.765 84.4697C21.765 84.4697 25.7079 88.2261 26.8526 89.6294C27.9973 91.0327 30.4097 92.9405 31.6095 92.5971C32.8093 92.2537 33.954 86.2631 33.954 86.2631L30.5623 85.8858Z" stroke="#263238" stroke-width="0.75" stroke-linecap="round" stroke-linejoin="round"/>
    <path d="M22.8505 82.7993L21.7651 84.4867L22.3205 84.864L23.4313 83.2742L22.8505 82.7993Z" fill="#263238" stroke="#263238" stroke-miterlimit="10"/>
    <path d="M22.4776 84.3891C22.7118 84.3891 22.9016 84.1993 22.9016 83.9652C22.9016 83.731 22.7118 83.5412 22.4776 83.5412C22.2435 83.5412 22.0536 83.731 22.0536 83.9652C22.0536 84.1993 22.2435 84.3891 22.4776 84.3891Z" fill="white" stroke="#263238" stroke-width="0.75" stroke-linecap="round" stroke-linejoin="round"/>
    <path d="M21.4387 71.4371C21.4387 71.4371 21.6973 72.0773 22.1298 73.2008C22.5622 74.3243 24.8856 76.6942 26.0218 76.8299C27.158 76.9656 28.5189 72.8362 28.7352 71.984C28.8072 71.7042 28.8793 71.2548 28.8793 71.2548C28.8793 71.2548 30.3081 70.5807 29.9774 69.7666C29.6467 68.9526 28.9768 68.5795 28.6588 68.8297C28.3409 69.0798 28.2858 70.1355 27.8109 70.144C27.3361 70.1525 27.0775 70.0041 26.6577 69.4444C26.238 68.8848 21.8881 70.0465 21.4387 71.4371Z" fill="white"/>
    <path opacity="0.5" d="M26.6492 69.4444C26.2253 68.889 21.8881 70.0507 21.4387 71.4371L21.6846 72.0645C23.3425 71.0647 25.1442 70.3254 27.0266 69.8726C26.8859 69.7437 26.7594 69.6002 26.6492 69.4444V69.4444Z" fill="#F9B9B9"/>
    <g style="mix-blend-mode:multiply">
        <path opacity="0.5" d="M29.9225 69.6522C29.5748 68.923 28.9601 68.5923 28.6506 68.8297C28.4566 69.0828 28.3127 69.3706 28.2266 69.6776C28.7898 69.6145 29.3577 69.606 29.9225 69.6522V69.6522Z" fill="#F9B9B9"/>
    </g>
    <path d="M21.4387 71.4371C21.4387 71.4371 21.6973 72.0773 22.1298 73.2008C22.5622 74.3243 24.8856 76.6942 26.0218 76.8299C27.158 76.9656 28.5189 72.8362 28.7352 71.984C28.8072 71.7042 28.8793 71.2548 28.8793 71.2548C28.8793 71.2548 30.3081 70.5807 29.9774 69.7666C29.6467 68.9526 28.9768 68.5795 28.6588 68.8297C28.3409 69.0798 28.2858 70.1355 27.8109 70.144C27.3361 70.1525 27.0775 70.0041 26.6577 69.4444C26.238 68.8848 21.8881 70.0465 21.4387 71.4371Z" stroke="#263238" stroke-width="0.75" stroke-linecap="round" stroke-linejoin="round"/>
    <path d="M22.9774 71.7423C23.0537 72.0009 23.0283 72.2383 22.9265 72.268C22.8248 72.2977 22.6764 72.1111 22.6001 71.844C22.5238 71.5769 22.5492 71.348 22.651 71.3183C22.7527 71.2887 22.9011 71.4922 22.9774 71.7423Z" fill="#263238" stroke="#263238" stroke-miterlimit="10"/>
    <path d="M22.1891 71.0216C22.7827 70.852 23.0371 71.2972 23.1092 71.7084L23.2194 72.196L23.5882 74.0826L24.1479 73.8452" stroke="#263238" stroke-width="0.5" stroke-linecap="round" stroke-linejoin="round"/>
    <path d="M24.6057 71.1657C24.7346 71.0242 24.8951 70.9152 25.0741 70.8474C25.2531 70.7796 25.4456 70.7551 25.6359 70.7757" stroke="#263238" stroke-width="0.5" stroke-linecap="round" stroke-linejoin="round"/>
    <path d="M25.0972 69.9913C24.856 70.0418 24.6346 70.1612 24.46 70.335C24.2854 70.5089 24.165 70.7297 24.1136 70.9707" stroke="#263238" stroke-width="0.5" stroke-linecap="round" stroke-linejoin="round"/>
    <path d="M24.652 74.4557C24.652 74.4557 25.8815 74.2098 25.9791 73.328" stroke="#263238" stroke-width="0.5" stroke-linecap="round" stroke-linejoin="round"/>
    <path d="M35.09 89.0655L28.8832 87.3357C28.8832 87.3357 29.4301 76.7366 30.3883 74.9432C31.8806 72.1578 35.302 73.4127 35.9464 76.9147C36.5485 80.2216 35.09 89.0655 35.09 89.0655Z" fill="#F9B9B9" stroke="#263238" stroke-linecap="round" stroke-linejoin="round"/>
    <path d="M29.0319 86.1571C29.0319 86.1571 32.4236 86.9372 34.4883 87.6155" stroke="#263238" stroke-width="0.5" stroke-linecap="round" stroke-linejoin="round"/>
    <path d="M34.4033 73.0905C34.4033 73.0905 36.4213 73.2474 37.7399 74.3327" stroke="#F9B9B9" stroke-width="0.5" stroke-linecap="round" stroke-linejoin="round"/>
    <path d="M69.9655 100.203C69.9655 100.203 60.9265 103.391 60.0998 104.26C59.2731 105.13 59.3579 108.521 61.3081 110.17C63.2584 111.82 77.1602 108.08 87.0979 106.991C97.0356 105.901 118.853 104.299 127.756 103.866C136.659 103.434 140.708 104.608 141.488 101.831C142.268 99.0541 142.171 96.0864 140.475 95.4843C138.779 94.8823 107.881 89.9346 69.9655 100.203Z" fill="#263238" stroke="#263238" stroke-width="0.75" stroke-linecap="round" stroke-linejoin="round"/>
    <path d="M59.4553 106.113C59.4553 106.113 59.8793 109.789 62.139 110.353C64.3988 110.917 91.2527 105.829 107.079 105.265C122.906 104.701 136.757 104.277 136.757 104.277" stroke="white" stroke-width="0.5" stroke-linecap="round" stroke-linejoin="round"/>
    <path d="M72.5728 107.979C83.0702 105.435 104.663 101.84 140.996 102.861" stroke="white" stroke-width="0.5" stroke-linecap="round" stroke-linejoin="round"/>
    <path d="M63.9666 110.217C63.9666 110.217 66.3789 109.632 70.0462 108.631" stroke="white" stroke-width="0.5" stroke-linecap="round" stroke-linejoin="round"/>
    <path d="M66.1795 110.637C66.2936 112.213 66.251 113.796 66.0523 115.364" stroke="white" stroke-width="0.5" stroke-linecap="round" stroke-linejoin="round"/>
    <path d="M65.7939 42.8406C65.7939 42.8406 63.7716 45.2106 63.6147 47.3346" stroke="#263238" stroke-width="0.75" stroke-linecap="round" stroke-linejoin="round"/>
    <path d="M63.4026 49.0475C63.4026 49.0475 61.8806 73.2601 65.9083 99.0287" stroke="#263238" stroke-width="0.75" stroke-linecap="round" stroke-linejoin="round"/>
    <path d="M63.8818 77.0249C63.8818 77.0249 60.5961 78.1696 60.5537 79.6535C60.4435 83.643 60.8632 92.1562 61.7323 92.9829C62.6015 93.8097 65.3021 91.622 65.3021 91.622C65.3021 91.622 69.1178 91.9527 69.5418 91.0963C69.9657 90.2399 68.3759 78.1866 68.1385 77.1351C67.901 76.0837 63.8818 77.0249 63.8818 77.0249Z" fill="#F9B9B9" stroke="#263238" stroke-linecap="round" stroke-linejoin="round"/>
    <path d="M132.514 82.7654C133.369 83.1832 134.298 83.4282 135.248 83.4861C134.197 79.5348 133.005 75.134 131.776 70.7418C130.665 70.6654 129.232 70.6654 129.262 71.1657C129.283 72.0221 131.441 82.1464 132.514 82.7654Z" fill="#F9B9B9" stroke="#263238" stroke-linecap="round" stroke-linejoin="round"/>
    <path d="M63.4112 78.2713C63.4112 78.2713 63.5553 85.9027 64.1192 88.8705" stroke="#263238" stroke-width="0.75" stroke-linecap="round" stroke-linejoin="round"/>
    <path d="M103.043 80.035C103.043 80.035 121.96 76.9867 144.002 80.883" stroke="#263238" stroke-linecap="round" stroke-linejoin="round"/>
    <path d="M160.635 91.9866C161.937 92.3766 163.217 92.7879 164.451 93.2288" stroke="#263238" stroke-linecap="round" stroke-linejoin="round"/>
    <path d="M126.671 86.2292C126.671 86.2292 141.671 87.1407 156.035 90.7317" stroke="#263238" stroke-linecap="round" stroke-linejoin="round"/>
    <path d="M81.0182 121.16C93.369 119.272 105.917 119.048 118.327 120.494" stroke="#263238" stroke-linecap="round" stroke-linejoin="round"/>
    <path d="M79.4667 119.163C79.4667 119.163 88.3446 118.052 91.2318 117.831" stroke="#263238" stroke-linecap="round" stroke-linejoin="round"/>
    <path d="M138.923 36.8203C140.195 37.0026 141.467 37.2443 142.62 37.5199" stroke="#263238" stroke-linecap="round" stroke-linejoin="round"/>
    <path d="M120.647 36.4006C125.87 36.0316 131.115 36.0671 136.333 36.5066" stroke="#263238" stroke-linecap="round" stroke-linejoin="round"/>
    <path d="M52.244 87.7597C52.244 87.7597 64.912 81.7606 83.24 80.0944" stroke="#263238" stroke-linecap="round" stroke-linejoin="round"/>
    <path d="M73.5775 76.7578C73.5775 76.7578 81.247 74.7609 92.9145 74.0911" stroke="#263238" stroke-linecap="round" stroke-linejoin="round"/>
    <path d="M52.0362 119.116C53.5758 121.874 56.0602 123.982 59.0316 125.052" stroke="#263238" stroke-linecap="round" stroke-linejoin="round"/>
    <path d="M51.6122 121.024C51.6122 121.024 53.52 123.992 56.0638 125.264" stroke="#263238" stroke-linecap="round" stroke-linejoin="round"/>
    <path d="M114.147 110.425C114.147 110.425 115.419 116.36 120.507 118.904" stroke="#263238" stroke-linecap="round" stroke-linejoin="round"/>
    <path d="M114.783 115.724C115.791 117.201 117.184 118.374 118.81 119.116" stroke="#263238" stroke-linecap="round" stroke-linejoin="round"/>
    <path d="M30.9057 127.154C30.9057 127.154 32.1776 129.274 36.6292 129.274" stroke="#263238" stroke-linecap="round" stroke-linejoin="round"/>
    <path d="M30.0582 128.426C31.68 129.775 33.6791 130.59 35.7817 130.758" stroke="#263238" stroke-linecap="round" stroke-linejoin="round"/>
    <path d="M87.3697 123.195C76.1099 123.807 64.9328 125.479 53.9868 128.189L54.2496 128.583C54.2496 128.583 63.5768 126.603 80.8152 130.843C98.0536 135.083 99.1899 138.474 118.124 138.474C137.058 138.474 155.433 133.955 155.433 133.955L153.135 132.683C136.134 125.488 112.833 121.77 87.3697 123.195Z" fill="#F9B9B9"/>
    <path opacity="0.5" d="M87.3697 123.195C76.1099 123.807 64.9328 125.479 53.9868 128.189L54.2496 128.583C54.2496 128.583 63.5768 126.603 80.8152 130.843C98.0536 135.083 99.1899 138.474 118.124 138.474C137.058 138.474 155.433 133.955 155.433 133.955L153.135 132.683C136.134 125.488 112.833 121.77 87.3697 123.195Z" fill="white"/>
    <path d="M45.8883 132.895C45.8883 132.895 68.1464 129.503 87.4368 142.434" stroke="#263238" stroke-linecap="round" stroke-linejoin="round"/>
    <path d="M69.2069 137.771C69.2069 137.771 78.3221 140.526 83.8337 146.462" stroke="#263238" stroke-linecap="round" stroke-linejoin="round"/>
    <path d="M123.05 126.959C123.05 126.959 135.981 128.231 147.64 135.227" stroke="#263238" stroke-linecap="round" stroke-linejoin="round"/>
    <path d="M163.369 137.915C165.698 139.34 167.915 140.94 170 142.701" stroke="#263238" stroke-linecap="round" stroke-linejoin="round"/>
    <path d="M11.6788 147.916C27.1323 134.773 55.0546 125.022 87.3692 123.195C116.864 121.52 143.468 126.803 160.715 136.338" stroke="#263238" stroke-linecap="round" stroke-linejoin="round"/>
    <path d="M105.88 126.747C105.88 126.747 119.235 127.383 128.138 130.351" stroke="#263238" stroke-linecap="round" stroke-linejoin="round"/>
    <path d="M45.3289 26.0982C45.3289 26.0982 44.905 20.2348 36.3197 20.0228C27.7344 19.8109 30.0323 25.8905 27.7301 27.3574C25.428 28.8243 24.7963 26.5095 22.4899 27.9849C20.1836 29.4603 21.218 32.3856 19.3484 32.8054C17.4787 33.2251 14.9476 30.9187 12.6455 32.3814C10.3434 33.8441 10.3391 35.1033 9.29192 35.1033C8.24473 35.1033 6.15034 34.2553 4.8954 35.1033C3.64047 35.9512 2.16931 36.9772 2.16931 36.9772H55.1649C55.1649 36.9772 55.7924 35.0905 53.469 33.8356C51.1457 32.5807 50.1155 33.6236 49.2803 32.5637C48.4451 31.5038 51.6121 28.8243 45.3289 26.0982Z" fill="#F9B9B9"/>
    <path d="M76.8168 3.65781C76.8168 3.65781 76.5624 0.130426 71.3985 0.00323647C66.2346 -0.123953 67.6167 3.53486 66.2304 4.41671C64.844 5.29855 64.4667 3.91219 63.0803 4.79404C61.694 5.67588 62.3257 7.43958 61.1894 7.68972C60.0532 7.93985 58.5439 6.55773 57.1575 7.43958C55.7712 8.32142 55.7712 9.07608 55.1395 9.07608C54.5078 9.07608 53.2486 8.5758 52.4939 9.07608C51.7393 9.57636 50.8574 10.2123 50.8574 10.2123H82.7396C82.7396 10.2123 83.1169 9.07608 81.7305 8.32142C80.3442 7.56677 79.7167 8.19423 79.2122 7.56677C78.7077 6.9393 80.5985 5.29856 76.8168 3.65781Z" fill="#F9B9B9"/>
    <path opacity="0.7" d="M45.3289 26.0982C45.3289 26.0982 44.905 20.2348 36.3197 20.0228C27.7344 19.8109 30.0323 25.8905 27.7301 27.3574C25.428 28.8243 24.7963 26.5095 22.4899 27.9849C20.1836 29.4603 21.218 32.3856 19.3484 32.8054C17.4787 33.2251 14.9476 30.9187 12.6455 32.3814C10.3434 33.8441 10.3391 35.1033 9.29192 35.1033C8.24473 35.1033 6.15034 34.2553 4.8954 35.1033C3.64047 35.9512 2.16931 36.9772 2.16931 36.9772H55.1649C55.1649 36.9772 55.7924 35.0905 53.469 33.8356C51.1457 32.5807 50.1155 33.6236 49.2803 32.5637C48.4451 31.5038 51.6121 28.8243 45.3289 26.0982Z" fill="white"/>
    <path opacity="0.8" d="M76.8168 3.65781C76.8168 3.65781 76.5624 0.130426 71.3985 0.00323647C66.2346 -0.123953 67.6167 3.53486 66.2304 4.41671C64.844 5.29855 64.4667 3.91219 63.0803 4.79404C61.694 5.67588 62.3257 7.43958 61.1894 7.68972C60.0532 7.93985 58.5439 6.55773 57.1575 7.43958C55.7712 8.32142 55.7712 9.07608 55.1395 9.07608C54.5078 9.07608 53.2486 8.5758 52.4939 9.07608C51.7393 9.57636 50.8574 10.2123 50.8574 10.2123H82.7396C82.7396 10.2123 83.1169 9.07608 81.7305 8.32142C80.3442 7.56677 79.7167 8.19423 79.2122 7.56677C78.7077 6.9393 80.5985 5.29856 76.8168 3.65781Z" fill="white"/>
</svg>
