<svg width="20" height="20" viewBox="0 0 20 20" fill="none" xmlns="http://www.w3.org/2000/svg">
<path fill-rule="evenodd" clip-rule="evenodd" d="M20.0001 8.822C20.0001 9.239 19.6611 9.578 19.2441 9.578H19.2351V9.56C18.8131 9.56 18.4711 9.219 18.4701 8.797V8.795V6.253C18.4701 3.2 16.8001 1.53 13.7561 1.53H6.2561C3.2101 1.53 1.5301 3.21 1.5301 6.253V13.753C1.5301 16.787 3.2101 18.467 6.2531 18.467H13.7531C16.7961 18.467 18.4671 16.787 18.4671 13.753C18.4671 13.331 18.8091 12.988 19.2321 12.988C19.6551 12.988 19.9971 13.331 19.9971 13.753C20.0001 17.608 17.6081 20 13.7561 20H6.2531C2.3921 20 9.91821e-05 17.608 9.91821e-05 13.756V6.256C9.91821e-05 2.392 2.3921 0 6.2531 0H13.7531C17.5901 0 20.0001 2.392 20.0001 6.253V8.822ZM8.8137 11.3135L13.0297 7.0965C13.3227 6.8035 13.7977 6.8035 14.0907 7.0965C14.3837 7.3895 14.3837 7.8645 14.0907 8.1575L9.3437 12.9045C9.2027 13.0445 9.0117 13.1235 8.8137 13.1235C8.6137 13.1235 8.4237 13.0445 8.2827 12.9045L5.9097 10.5305C5.6167 10.2375 5.6167 9.7625 5.9097 9.4695C6.2027 9.1765 6.6777 9.1765 6.9707 9.4695L8.8137 11.3135Z" fill="#212121"/>
</svg>
