<svg width="18" height="20" viewBox="0 0 18 20" fill="none" xmlns="http://www.w3.org/2000/svg">
    <path fill-rule="evenodd" clip-rule="evenodd" d="M6.04617 3.49695H17.286C17.6801 3.49695 18 3.82394 18 4.22794C18 4.63293 17.6801 4.95993 17.286 4.95993H0.712978C0.318938 4.95993 0 4.63293 0 4.22794C0 3.82394 0.318938 3.49695 0.712978 3.49695H3.90723C4.33248 3.49695 4.70214 3.18595 4.78504 2.75996L5.02303 1.53998C5.26394 0.613991 6.04422 0 6.93178 0H11.0682C11.9558 0 12.7361 0.613991 12.9662 1.49398C13.0687 1.88497 12.8424 2.28597 12.462 2.39096C12.0826 2.49596 11.6905 2.26397 11.5881 1.87297C11.5247 1.63198 11.3111 1.46398 11.0682 1.46398H6.93178C6.68892 1.46398 6.47532 1.63198 6.41192 1.87297L6.18467 3.04595C6.15345 3.20395 6.10469 3.35195 6.04617 3.49695ZM5.1547 18.4967C4.23788 18.4767 3.71899 17.9667 3.61268 16.9797C3.30642 14.1568 2.78169 7.47189 2.77681 7.40489C2.7456 7.00189 2.4013 6.7149 2.00824 6.7329C1.61517 6.7659 1.32257 7.11889 1.35475 7.52089C1.35963 7.58889 1.88534 14.2968 2.19355 17.1427C2.37789 18.8457 3.50051 19.9247 5.12544 19.9597H5.14007C5.52728 19.9597 5.84525 19.6427 5.85402 19.2437C5.86183 18.8397 5.54874 18.5047 5.1547 18.4967ZM15.9916 6.7332C15.6034 6.7122 15.2542 7.00119 15.223 7.40419C15.2181 7.47119 14.6895 14.1741 14.3862 16.975C14.2779 17.983 13.7522 18.482 12.7778 18.501L12.3905 18.508C11.1533 18.5302 10.5775 18.5406 9.19536 18.536H9.19341C8.79937 18.536 8.48043 18.861 8.47946 19.264C8.47751 19.669 8.79645 19.997 9.19049 19.999C9.43432 20 9.67718 20 9.92102 20C10.9402 20 11.3473 19.9918 12.1116 19.9765C12.3121 19.9725 12.5371 19.968 12.8041 19.963C14.4954 19.932 15.618 18.875 15.8053 17.135C16.1106 14.3141 16.6402 7.58919 16.6451 7.52219C16.6772 7.11919 16.3846 6.7662 15.9916 6.7332Z" fill="#212121"/>
</svg>
