<svg width="18" height="21" viewBox="0 0 18 21" fill="none" xmlns="http://www.w3.org/2000/svg">
    <path d="M16.7142 8.78181C16.7142 14.7818 8.99993 19.9247 8.99993 19.9247C8.99993 19.9247 1.28564 14.7818 1.28564 8.78181C1.28564 6.73585 2.0984 4.77369 3.54511 3.32698C4.99182 1.88027 6.95397 1.06752 8.99993 1.06752C11.0459 1.06752 13.008 1.88027 14.4548 3.32698C15.9015 4.77369 16.7142 6.73585 16.7142 8.78181Z" stroke="#FF8108"/>
    <path d="M8.99993 11.3532C10.4201 11.3532 11.5714 10.202 11.5714 8.78181C11.5714 7.36165 10.4201 6.21038 8.99993 6.21038C7.57977 6.21038 6.4285 7.36165 6.4285 8.78181C6.4285 10.202 7.57977 11.3532 8.99993 11.3532Z" stroke="#FF8108"/>
</svg>
