<svg width="20" height="20" viewBox="0 0 20 20" fill="none" xmlns="http://www.w3.org/2000/svg">
    <path fill-rule="evenodd" clip-rule="evenodd" d="M0.000213623 10C0.000213623 4.485 4.48621 0 10.0002 0C15.5142 0 20.0002 4.485 20.0002 10C20.0002 15.514 15.5142 20 10.0002 20C6.87221 20 3.98321 18.577 2.07321 16.098C1.82821 15.779 1.88721 15.322 2.20521 15.078C2.52321 14.832 2.97921 14.893 3.22521 15.21C4.85721 17.33 7.32721 18.546 10.0002 18.546C14.7122 18.546 18.5452 14.713 18.5452 10C18.5452 5.288 14.7122 1.454 10.0002 1.454C5.28821 1.454 1.45421 5.288 1.45421 10C1.45421 10.438 1.48721 10.873 1.55221 11.299C1.61221 11.695 1.33921 12.066 0.943214 12.127C0.544214 12.193 0.175214 11.916 0.114214 11.519C0.0382136 11.021 0.000213623 10.51 0.000213623 10ZM5.52041 8.804C6.18141 8.804 6.71841 9.341 6.71841 10C6.71841 10.66 6.18141 11.197 5.52041 11.197C4.86041 11.197 4.32241 10.66 4.32241 10C4.32241 9.341 4.86041 8.804 5.52041 8.804ZM9.99991 8.804C10.6599 8.804 11.1979 9.341 11.1979 10C11.1979 10.66 10.6599 11.197 9.99991 11.197C9.33891 11.197 8.80191 10.66 8.80191 10C8.80191 9.341 9.33891 8.804 9.99991 8.804ZM15.6769 10C15.6769 9.341 15.1399 8.804 14.4789 8.804C13.8189 8.804 13.2809 9.341 13.2809 10C13.2809 10.66 13.8189 11.197 14.4789 11.197C15.1399 11.197 15.6769 10.66 15.6769 10Z" fill="#212121"/>
</svg>
