<svg width="20" height="18" viewBox="0 0 20 18" fill="none" xmlns="http://www.w3.org/2000/svg">
    <path d="M1.11743 14.397C0.841289 14.397 0.617432 14.6208 0.617432 14.897C0.617432 15.1731 0.841289 15.397 1.11743 15.397V14.397ZM4.12156 15.397C4.3977 15.397 4.62156 15.1731 4.62156 14.897C4.62156 14.6208 4.3977 14.397 4.12156 14.397V15.397ZM16.1009 14.397C15.8248 14.397 15.6009 14.6208 15.6009 14.897C15.6009 15.1731 15.8248 15.397 16.1009 15.397V14.397ZM18.8825 8.55493H19.3825C19.3825 8.27879 19.1586 8.05493 18.8825 8.05493V8.55493ZM10.5748 8.55493H10.0748C10.0748 8.83108 10.2987 9.05493 10.5748 9.05493V8.55493ZM10.5748 1.28571H11.0748C11.0748 1.00956 10.8509 0.785706 10.5748 0.785706V1.28571ZM3.34265 0.785706C3.06651 0.785706 2.84265 1.00956 2.84265 1.28571C2.84265 1.56185 3.06651 1.78571 3.34265 1.78571V0.785706ZM14.469 2.32419L14.8778 2.03632C14.7842 1.90332 14.6317 1.82419 14.469 1.82419V2.32419ZM3.08297 3.64146C2.80682 3.64146 2.58297 3.86531 2.58297 4.14146C2.58297 4.4176 2.80682 4.64146 3.08297 4.64146V3.64146ZM7.71896 4.64146C7.9951 4.64146 8.21896 4.4176 8.21896 4.14146C8.21896 3.86531 7.9951 3.64146 7.71896 3.64146V4.64146ZM1.9333 6.57146C1.65715 6.57146 1.4333 6.79532 1.4333 7.07146C1.4333 7.3476 1.65715 7.57146 1.9333 7.57146V6.57146ZM6.56929 7.57146C6.84543 7.57146 7.06929 7.3476 7.06929 7.07146C7.06929 6.79532 6.84543 6.57146 6.56929 6.57146V7.57146ZM1.26569 9.50137C0.989552 9.50137 0.765695 9.72522 0.765695 10.0014C0.765695 10.2775 0.989552 10.5014 1.26569 10.5014V9.50137ZM5.90168 10.5014C6.17783 10.5014 6.40168 10.2775 6.40168 10.0014C6.40168 9.72522 6.17783 9.50137 5.90168 9.50137V10.5014ZM8.34958 15.397H11.91V14.397H8.34958V15.397ZM1.11743 15.397H4.12156V14.397H1.11743V15.397ZM16.1009 15.397H16.6572V14.397H16.1009V15.397ZM16.6572 15.397C18.1573 15.397 19.3825 14.1717 19.3825 12.6717H18.3825C18.3825 13.6195 17.605 14.397 16.6572 14.397V15.397ZM19.3825 12.6717V8.55493H18.3825V12.6717H19.3825ZM18.8825 8.05493H10.5748V9.05493H18.8825V8.05493ZM11.0748 8.55493V1.28571H10.0748V8.55493H11.0748ZM10.5748 0.785706H3.34265V1.78571H10.5748V0.785706ZM10.2039 2.82419H14.469V1.82419H10.2039V2.82419ZM14.0602 2.61205L18.4737 8.87991L19.2913 8.30418L14.8778 2.03632L14.0602 2.61205ZM7.84947 14.6002C7.84947 15.4796 7.14043 16.2143 6.23546 16.2143V17.2143C7.70411 17.2143 8.84947 16.0204 8.84947 14.6002H7.84947ZM6.23546 16.2143C5.32479 16.2143 4.62145 15.5109 4.62145 14.6002H3.62145C3.62145 16.0632 4.7725 17.2143 6.23546 17.2143V16.2143ZM4.62145 14.6002C4.62145 13.7209 5.33048 12.9862 6.23546 12.9862V11.9862C4.7668 11.9862 3.62145 13.1801 3.62145 14.6002H4.62145ZM6.23546 12.9862C7.14043 12.9862 7.84947 13.7209 7.84947 14.6002H8.84947C8.84947 13.1801 7.70411 11.9862 6.23546 11.9862V12.9862ZM15.6009 14.6002C15.6009 15.4796 14.8919 16.2143 13.9869 16.2143V17.2143C15.4555 17.2143 16.6009 16.0204 16.6009 14.6002H15.6009ZM13.9869 16.2143C13.1076 16.2143 12.3729 15.5052 12.3729 14.6002H11.3729C11.3729 16.0689 12.5668 17.2143 13.9869 17.2143V16.2143ZM12.3729 14.6002C12.3729 13.7209 13.0819 12.9862 13.9869 12.9862V11.9862C12.5182 11.9862 11.3729 13.1801 11.3729 14.6002H12.3729ZM13.9869 12.9862C14.8919 12.9862 15.6009 13.7209 15.6009 14.6002H16.6009C16.6009 13.1801 15.4555 11.9862 13.9869 11.9862V12.9862ZM3.08297 4.64146H7.71896V3.64146H3.08297V4.64146ZM1.9333 7.57146H6.56929V6.57146H1.9333V7.57146ZM1.26569 10.5014H5.90168V9.50137H1.26569V10.5014Z" fill="#FF8108"/>
</svg>
