<svg width="21" height="20" viewBox="0 0 21 20" fill="none" xmlns="http://www.w3.org/2000/svg">
    <path d="M15.9185 12.32C15.6595 12.571 15.5405 12.934 15.5995 13.29L16.4885 18.21C16.5635 18.627 16.3875 19.049 16.0385 19.29C15.6965 19.54 15.2415 19.57 14.8685 19.37L10.4395 17.06C10.2855 16.978 10.1145 16.934 9.93951 16.929H9.66851C9.57451 16.943 9.48251 16.973 9.39851 17.019L4.96851 19.34C4.74951 19.45 4.50151 19.489 4.25851 19.45C3.66651 19.338 3.27151 18.774 3.36851 18.179L4.25851 13.259C4.31751 12.9 4.19851 12.535 3.93951 12.28L0.32851 8.78C0.0265096 8.487 -0.0784904 8.047 0.0595096 7.65C0.19351 7.254 0.53551 6.965 0.94851 6.9L5.91851 6.179C6.29651 6.14 6.62851 5.91 6.79851 5.57L8.98851 1.08C9.04051 0.98 9.10751 0.888 9.18851 0.81L9.27851 0.74C9.32551 0.688 9.37951 0.645 9.43951 0.61L9.54851 0.57L9.71851 0.5H10.1395C10.5155 0.539 10.8465 0.764 11.0195 1.1L13.2385 5.57C13.3985 5.897 13.7095 6.124 14.0685 6.179L19.0385 6.9C19.4585 6.96 19.8095 7.25 19.9485 7.65C20.0795 8.051 19.9665 8.491 19.6585 8.78L15.9185 12.32Z" fill="#212121"/>
</svg>
